<svg xmlns="http://www.w3.org/2000/svg" xmlns:xlink="http://www.w3.org/1999/xlink" contentStyleType="text/css" data-diagram-type="ACTIVITY" height="1564px" preserveAspectRatio="none" style="width:529px;height:1564px;background:#FFFFFF;" version="1.1" viewBox="0 0 529 1564" width="529px" zoomAndPan="magnify"><defs/><g><ellipse cx="191.9961" cy="20" fill="#222222" rx="10" ry="10" style="stroke:#222222;stroke-width:1;"/><path d="M274.9971,45.6245 L274.9971,64.0361 L254.9971,68.0361 L274.9971,72.0361 L274.9971,90.4478 A0,0 0 0 0 274.9971,90.4478 L517.6318,90.4478 A0,0 0 0 0 517.6318,90.4478 L517.6318,55.6245 L507.6318,45.6245 L274.9971,45.6245 A0,0 0 0 0 274.9971,45.6245" fill="#FEFFDD" style="stroke:#181818;stroke-width:0.5;"/><path d="M507.6318,45.6245 L507.6318,55.6245 L517.6318,55.6245 L507.6318,45.6245" fill="#FEFFDD" style="stroke:#181818;stroke-width:0.5;"/><text fill="#000000" font-family="sans-serif" font-size="13" lengthAdjust="spacing" textLength="127.8354" x="280.9971" y="64.7734">&#51473;&#48373; &#52376;&#47532; &#48169;&#51648;&#47484; &#50948;&#54644;</text><text fill="#000000" font-family="sans-serif" font-size="13" lengthAdjust="spacing" textLength="221.6348" x="280.9971" y="82.1851">&#52376;&#47532; &#49884;&#51089; &#49884; &#49345;&#53468;&#47484; '&#52376;&#47532; &#51473;'&#51004;&#47196; &#48320;&#44221;</text><rect fill="#F8F9FA" height="36.0723" rx="12.5" ry="12.5" style="stroke:#AAAAAA;stroke-width:0.5;" width="126.002" x="128.9951" y="50"/><text fill="#000000" font-family="sans-serif" font-size="12" lengthAdjust="spacing" textLength="106.002" x="138.9951" y="73.0605">&#48120;&#52376;&#47532; &#48176;&#52264; &#44148; &#51312;&#54924;</text><rect fill="#F8F9FA" height="36.0723" rx="12.5" ry="12.5" style="stroke:#AAAAAA;stroke-width:0.5;" width="98.668" x="142.6621" y="110.4478"/><text fill="#000000" font-family="sans-serif" font-size="12" lengthAdjust="spacing" textLength="78.668" x="152.6621" y="133.5083">&#49884;&#46020; &#54943;&#49688; &#54869;&#51064;</text><rect fill="#F8F9FA" height="36.0723" rx="12.5" ry="12.5" style="stroke:#AAAAAA;stroke-width:0.5;" width="98.668" x="142.6621" y="215.8865"/><text fill="#000000" font-family="sans-serif" font-size="12" lengthAdjust="spacing" textLength="78.668" x="152.6621" y="238.947">&#52572;&#51333; &#49892;&#54056; &#52376;&#47532;</text><rect fill="#F8F9FA" height="36.0723" rx="12.5" ry="12.5" style="stroke:#AAAAAA;stroke-width:0.5;" width="98.668" x="142.6621" y="271.9587"/><text fill="#000000" font-family="sans-serif" font-size="12" lengthAdjust="spacing" textLength="78.668" x="152.6621" y="295.0193">&#49892;&#54056; &#50508;&#47548; &#51204;&#49569;</text><ellipse cx="191.9961" cy="339.031" fill="none" rx="11" ry="11" style="stroke:#222222;stroke-width:1;"/><ellipse cx="191.9961" cy="339.031" fill="#222222" rx="6" ry="6" style="stroke:#222222;stroke-width:1;"/><polygon fill="#FFF3CD" points="152.8811,166.52,231.1111,166.52,243.1111,178.52,231.1111,190.52,152.8811,190.52,140.8811,178.52,152.8811,166.52" style="stroke:#AAAAAA;stroke-width:0.5;"/><text fill="#000000" font-family="sans-serif" font-size="11" lengthAdjust="spacing" textLength="17.1177" x="195.9961" y="202.4922">yes</text><text fill="#000000" font-family="sans-serif" font-size="11" lengthAdjust="spacing" textLength="78.23" x="152.8811" y="183.1257">&#52572;&#45824; &#49884;&#46020; &#52488;&#44284;?</text><path d="M346.7686,382.031 L346.7686,417.8542 L326.7686,421.8542 L346.7686,425.8542 L346.7686,461.6775 A0,0 0 0 0 346.7686,461.6775 L465.9922,461.6775 A0,0 0 0 0 465.9922,461.6775 L465.9922,392.031 L455.9922,382.031 L346.7686,382.031 A0,0 0 0 0 346.7686,382.031" fill="#FEFFDD" style="stroke:#181818;stroke-width:0.5;"/><path d="M455.9922,382.031 L455.9922,392.031 L465.9922,392.031 L455.9922,382.031" fill="#FEFFDD" style="stroke:#181818;stroke-width:0.5;"/><text fill="#000000" font-family="sans-serif" font-size="13" lengthAdjust="spacing" textLength="85.2236" x="352.7686" y="401.1799">&#51593;&#49884; &#49892;&#54056; &#45824;&#49888;</text><text fill="#000000" font-family="sans-serif" font-size="13" lengthAdjust="spacing" textLength="81.6118" x="352.7686" y="418.5916">&#48152;&#44221;&#51012; &#45331;&#55176;&#44256;</text><text fill="#000000" font-family="sans-serif" font-size="13" lengthAdjust="spacing" textLength="98.2236" x="352.7686" y="436.0032">&#44160;&#49353; &#45824;&#49688;&#47484; &#45720;&#47140;</text><text fill="#000000" font-family="sans-serif" font-size="13" lengthAdjust="spacing" textLength="98.2236" x="352.7686" y="453.4148">&#48176;&#52264; &#49457;&#44277;&#47456; &#54693;&#49345;</text><rect fill="#F8F9FA" height="52.1445" rx="12.5" ry="12.5" style="stroke:#AAAAAA;stroke-width:0.5;" width="269.5449" x="57.2236" y="395.782"/><text fill="#000000" font-family="sans-serif" font-size="12" lengthAdjust="spacing" textLength="172.6699" x="67.2236" y="418.8425">&#49884;&#46020; &#54943;&#49688;&#50640; &#46384;&#46972; &#53456;&#49353; &#48152;&#44221; &#54869;&#51109;</text><text fill="#000000" font-family="sans-serif" font-size="12" lengthAdjust="spacing" textLength="249.5449" x="67.2236" y="434.9148">1&#52264; 1km 5&#45824; &#8594; 2&#52264; 2km 10&#45824; &#8594; 3&#52264; 3km 15&#45824;</text><rect fill="#F8F9FA" height="52.1445" rx="12.5" ry="12.5" style="stroke:#AAAAAA;stroke-width:0.5;" width="141.3359" x="121.3281" y="481.6775"/><text fill="#000000" font-family="sans-serif" font-size="12" lengthAdjust="spacing" textLength="121.3359" x="131.3281" y="504.738">&#48152;&#44221; &#45236; &#44032;&#50857; &#52264;&#47049; &#51312;&#54924;</text><text fill="#000000" font-family="sans-serif" font-size="12" lengthAdjust="spacing" textLength="71.3262" x="131.3281" y="520.8103">(&#44144;&#47532;&#49692; &#51221;&#47148;)</text><rect fill="#F8F9FA" height="52.1445" rx="12.5" ry="12.5" style="stroke:#AAAAAA;stroke-width:0.5;" width="153.3359" x="115.3281" y="553.822"/><text fill="#000000" font-family="sans-serif" font-size="12" lengthAdjust="spacing" textLength="133.3359" x="125.3281" y="576.8826">&#53456;&#49353; &#51473; &#49345;&#53468; &#49892;&#49884;&#44036; &#51204;&#49569;</text><text fill="#000000" font-family="sans-serif" font-size="12" lengthAdjust="spacing" textLength="113.9941" x="125.3281" y="592.9548">(&#51452;&#48320; &#52264;&#47049; &#47785;&#47197; &#54252;&#54632;)</text><rect fill="#F8F9FA" height="36.0723" rx="12.5" ry="12.5" style="stroke:#AAAAAA;stroke-width:0.5;" width="150.002" x="116.9951" y="675.333"/><text fill="#000000" font-family="sans-serif" font-size="12" lengthAdjust="spacing" textLength="130.002" x="126.9951" y="698.3936">&#51116;&#49884;&#46020; &#45824;&#44592; &#49345;&#53468;&#47196; &#51204;&#54872;</text><ellipse cx="191.9961" cy="749.8691" fill="none" rx="11" ry="11" style="stroke:#222222;stroke-width:1;"/><ellipse cx="191.9961" cy="749.8691" fill="#222222" rx="6" ry="6" style="stroke:#222222;stroke-width:1;"/><polygon fill="#FFF3CD" points="152.8811,625.9666,231.1111,625.9666,243.1111,637.9666,231.1111,649.9666,152.8811,649.9666,140.8811,637.9666,152.8811,625.9666" style="stroke:#AAAAAA;stroke-width:0.5;"/><text fill="#000000" font-family="sans-serif" font-size="11" lengthAdjust="spacing" textLength="17.1177" x="195.9961" y="661.9387">yes</text><text fill="#000000" font-family="sans-serif" font-size="11" lengthAdjust="spacing" textLength="78.23" x="152.8811" y="642.5723">&#51452;&#48320; &#52264;&#47049; &#50630;&#51020;?</text><polygon fill="#FFF3CD" points="152.8811,802.8691,231.1111,802.8691,243.1111,814.8691,231.1111,826.8691,152.8811,826.8691,140.8811,814.8691,152.8811,802.8691" style="stroke:#AAAAAA;stroke-width:0.5;"/><text fill="#000000" font-family="sans-serif" font-size="11" lengthAdjust="spacing" textLength="78.23" x="152.8811" y="819.4749">&#51068;&#48152; &#46321;&#44553; &#50836;&#52397;?</text><text fill="#000000" font-family="sans-serif" font-size="11" lengthAdjust="spacing" textLength="17.1177" x="123.7634" y="812.1084">yes</text><text fill="#000000" font-family="sans-serif" font-size="11" lengthAdjust="spacing" textLength="62.3477" x="243.1111" y="812.1084">no, &#54532;&#47532;&#48120;&#50628;</text><rect fill="#F8F9FA" height="52.1445" rx="12.5" ry="12.5" style="stroke:#AAAAAA;stroke-width:0.5;" width="145.9941" x="38" y="836.8691"/><text fill="#000000" font-family="sans-serif" font-size="12" lengthAdjust="spacing" textLength="78.668" x="48" y="859.9297">&#52264;&#47049; &#47785;&#47197; &#49492;&#54540;</text><text fill="#000000" font-family="sans-serif" font-size="12" lengthAdjust="spacing" textLength="125.9941" x="48" y="876.002">(&#44592;&#49324; &#49440;&#53469;&#44428; &#48512;&#50668; &#54952;&#44284;)</text><rect fill="#F8F9FA" height="52.1445" rx="12.5" ry="12.5" style="stroke:#AAAAAA;stroke-width:0.5;" width="138.002" x="203.9941" y="836.8691"/><text fill="#000000" font-family="sans-serif" font-size="12" lengthAdjust="spacing" textLength="118.002" x="213.9941" y="859.9297">&#44032;&#51109; &#44032;&#44620;&#50868; &#52264;&#47049; &#50864;&#49440;</text><text fill="#000000" font-family="sans-serif" font-size="12" lengthAdjust="spacing" textLength="86.6602" x="213.9941" y="876.002">(&#44144;&#51208; &#48520;&#44032; &#51221;&#52293;)</text><polygon fill="#FFF3CD" points="191.9961,895.0137,203.9961,907.0137,191.9961,919.0137,179.9961,907.0137,191.9961,895.0137" style="stroke:#AAAAAA;stroke-width:0.5;"/><path d="M286.9971,986.4858 L286.9971,1013.6033 L266.9971,1017.6033 L286.9971,1021.6033 L286.9971,1048.7207 A0,0 0 0 0 286.9971,1048.7207 L432.2207,1048.7207 A0,0 0 0 0 432.2207,1048.7207 L432.2207,996.4858 L422.2207,986.4858 L286.9971,986.4858 A0,0 0 0 0 286.9971,986.4858" fill="#FEFFDD" style="stroke:#181818;stroke-width:0.5;"/><path d="M422.2207,986.4858 L422.2207,996.4858 L432.2207,996.4858 L422.2207,986.4858" fill="#FEFFDD" style="stroke:#181818;stroke-width:0.5;"/><text fill="#000000" font-family="sans-serif" font-size="13" lengthAdjust="spacing" textLength="111.2236" x="292.9971" y="1005.6348">&#46041;&#49884;&#50640; &#50668;&#47084; &#49849;&#44061;&#51060;</text><text fill="#000000" font-family="sans-serif" font-size="13" lengthAdjust="spacing" textLength="124.2236" x="292.9971" y="1023.0464">&#44057;&#51008; &#52264;&#47049;&#50640; &#48176;&#52264;&#46104;&#45716;</text><text fill="#000000" font-family="sans-serif" font-size="13" lengthAdjust="spacing" textLength="85.2236" x="292.9971" y="1040.458">&#51473;&#48373; &#48176;&#52264; &#48169;&#51648;</text><rect fill="#F8F9FA" height="36.0723" rx="12.5" ry="12.5" style="stroke:#AAAAAA;stroke-width:0.5;" width="150.002" x="116.9951" y="999.5671"/><text fill="#000000" font-family="sans-serif" font-size="12" lengthAdjust="spacing" textLength="130.002" x="126.9951" y="1022.6277">&#54644;&#45817; &#52264;&#47049;&#50640; &#48516;&#49328;&#46973; &#49884;&#46020;</text><polygon fill="#FFF3CD" points="147.3811,1068.7207,236.6111,1068.7207,248.6111,1080.7207,236.6111,1092.7207,147.3811,1092.7207,135.3811,1080.7207,147.3811,1068.7207" style="stroke:#AAAAAA;stroke-width:0.5;"/><text fill="#000000" font-family="sans-serif" font-size="11" lengthAdjust="spacing" textLength="89.23" x="147.3811" y="1085.3264">&#45796;&#47480; &#50836;&#52397;&#51060; &#49440;&#51216;?</text><text fill="#000000" font-family="sans-serif" font-size="11" lengthAdjust="spacing" textLength="17.1177" x="118.2634" y="1077.96">yes</text><text fill="#000000" font-family="sans-serif" font-size="11" lengthAdjust="spacing" textLength="12.2354" x="248.6111" y="1077.96">no</text><rect fill="#F8F9FA" height="36.0723" rx="12.5" ry="12.5" style="stroke:#AAAAAA;stroke-width:0.5;" width="95.334" x="39.8853" y="1102.7207"/><text fill="#000000" font-family="sans-serif" font-size="12" lengthAdjust="spacing" textLength="75.334" x="49.8853" y="1125.7813">&#45796;&#51020; &#52264;&#47049;&#51004;&#47196;</text><rect fill="#F8F9FA" height="52.1445" rx="12.5" ry="12.5" style="stroke:#AAAAAA;stroke-width:0.5;" width="154.6719" x="219.104" y="1102.7207"/><text fill="#000000" font-family="sans-serif" font-size="12" lengthAdjust="spacing" textLength="134.6719" x="229.104" y="1125.7813">DB&#50640;&#49436; &#52264;&#47049; &#49345;&#53468; &#51116;&#54869;&#51064;</text><text fill="#000000" font-family="sans-serif" font-size="12" lengthAdjust="spacing" textLength="59.3262" x="229.104" y="1141.8535">(&#51060;&#51473; &#52404;&#53356;)</text><polygon fill="#FFF3CD" points="269.853,1174.8652,323.0269,1174.8652,335.0269,1186.8652,323.0269,1198.8652,269.853,1198.8652,257.853,1186.8652,269.853,1174.8652" style="stroke:#AAAAAA;stroke-width:0.5;"/><text fill="#000000" font-family="sans-serif" font-size="11" lengthAdjust="spacing" textLength="53.1738" x="269.853" y="1191.4709">&#48176;&#52264; &#44032;&#45733;?</text><text fill="#000000" font-family="sans-serif" font-size="11" lengthAdjust="spacing" textLength="12.2354" x="245.6177" y="1184.1045">no</text><text fill="#000000" font-family="sans-serif" font-size="11" lengthAdjust="spacing" textLength="17.1177" x="335.0269" y="1184.1045">yes</text><rect fill="#F8F9FA" height="36.0723" rx="12.5" ry="12.5" style="stroke:#AAAAAA;stroke-width:0.5;" width="128.7383" x="165.2192" y="1208.8652"/><text fill="#000000" font-family="sans-serif" font-size="12" lengthAdjust="spacing" textLength="108.7383" x="175.2192" y="1231.9258">&#46973; &#54644;&#51228; &#8594; &#45796;&#51020; &#52264;&#47049;</text><rect fill="#F8F9FA" height="36.0723" rx="12.5" ry="12.5" style="stroke:#AAAAAA;stroke-width:0.5;" width="71.334" x="327.6245" y="1208.8652"/><text fill="#000000" font-family="sans-serif" font-size="12" lengthAdjust="spacing" textLength="51.334" x="337.6245" y="1231.9258">&#48176;&#52264; &#54869;&#51221;</text><rect fill="#F8F9FA" height="36.0723" rx="12.5" ry="12.5" style="stroke:#AAAAAA;stroke-width:0.5;" width="98.668" x="313.9575" y="1264.9375"/><text fill="#000000" font-family="sans-serif" font-size="12" lengthAdjust="spacing" textLength="78.668" x="323.9575" y="1287.998">&#50756;&#47308; &#50508;&#47548; &#51204;&#49569;</text><rect fill="#F8F9FA" height="36.0723" rx="12.5" ry="12.5" style="stroke:#AAAAAA;stroke-width:0.5;" width="59.334" x="333.6245" y="1321.0098"/><text fill="#000000" font-family="sans-serif" font-size="12" lengthAdjust="spacing" textLength="39.334" x="343.6245" y="1344.0703">&#46973; &#54644;&#51228;</text><ellipse cx="363.2915" cy="1388.082" fill="none" rx="11" ry="11" style="stroke:#222222;stroke-width:1;"/><ellipse cx="363.2915" cy="1388.082" fill="#222222" rx="6" ry="6" style="stroke:#222222;stroke-width:1;"/><polygon fill="#FFF3CD" points="191.9961,1409.082,203.9961,1421.082,191.9961,1433.082,179.9961,1421.082,191.9961,1409.082" style="stroke:#AAAAAA;stroke-width:0.5;"/><polygon fill="#FFF3CD" points="155.9399,939.0137,228.0522,939.0137,240.0522,951.0137,228.0522,963.0137,155.9399,963.0137,143.9399,951.0137,155.9399,939.0137" style="stroke:#AAAAAA;stroke-width:0.5;"/><text fill="#000000" font-family="sans-serif" font-size="11" lengthAdjust="spacing" textLength="47.0562" x="195.9961" y="974.9858">&#45796;&#51020; &#52264;&#47049;</text><text fill="#000000" font-family="sans-serif" font-size="11" lengthAdjust="spacing" textLength="72.1123" x="155.9399" y="955.6194">&#52264;&#47049; &#54980;&#48372; &#49692;&#54924;</text><text fill="#000000" font-family="sans-serif" font-size="11" lengthAdjust="spacing" textLength="47.0562" x="96.8838" y="948.2529">&#54980;&#48372; &#49548;&#51652;</text><rect fill="#F8F9FA" height="36.0723" rx="12.5" ry="12.5" style="stroke:#AAAAAA;stroke-width:0.5;" width="150.002" x="116.9951" y="1475.082"/><text fill="#000000" font-family="sans-serif" font-size="12" lengthAdjust="spacing" textLength="130.002" x="126.9951" y="1498.1426">&#51116;&#49884;&#46020; &#45824;&#44592; &#49345;&#53468;&#47196; &#51204;&#54872;</text><ellipse cx="191.9961" cy="1542.1543" fill="none" rx="11" ry="11" style="stroke:#222222;stroke-width:1;"/><ellipse cx="191.9961" cy="1542.1543" fill="#222222" rx="6" ry="6" style="stroke:#222222;stroke-width:1;"/><line style="stroke:#555555;stroke-width:1;" x1="191.9961" x2="191.9961" y1="30" y2="50"/><polygon fill="#555555" points="187.9961,40,191.9961,50,195.9961,40,191.9961,44" style="stroke:#555555;stroke-width:1;"/><line style="stroke:#555555;stroke-width:1;" x1="191.9961" x2="191.9961" y1="86.0723" y2="110.4478"/><polygon fill="#555555" points="187.9961,100.4478,191.9961,110.4478,195.9961,100.4478,191.9961,104.4478" style="stroke:#555555;stroke-width:1;"/><line style="stroke:#555555;stroke-width:1;" x1="191.9961" x2="191.9961" y1="251.9587" y2="271.9587"/><polygon fill="#555555" points="187.9961,261.9587,191.9961,271.9587,195.9961,261.9587,191.9961,265.9587" style="stroke:#555555;stroke-width:1;"/><line style="stroke:#555555;stroke-width:1;" x1="191.9961" x2="191.9961" y1="308.031" y2="328.031"/><polygon fill="#555555" points="187.9961,318.031,191.9961,328.031,195.9961,318.031,191.9961,322.031" style="stroke:#555555;stroke-width:1;"/><line style="stroke:#555555;stroke-width:1;" x1="191.9961" x2="191.9961" y1="190.52" y2="215.8865"/><polygon fill="#555555" points="187.9961,205.8865,191.9961,215.8865,195.9961,205.8865,191.9961,209.8865" style="stroke:#555555;stroke-width:1;"/><line style="stroke:#555555;stroke-width:1;" x1="243.1111" x2="255.1111" y1="178.52" y2="178.52"/><polygon fill="#555555" points="251.1111,269.9587,255.1111,279.9587,259.1111,269.9587,255.1111,273.9587" style="stroke:#555555;stroke-width:1;"/><line style="stroke:#555555;stroke-width:1;" x1="255.1111" x2="255.1111" y1="178.52" y2="372.031"/><line style="stroke:#555555;stroke-width:1;" x1="255.1111" x2="191.9961" y1="372.031" y2="372.031"/><line style="stroke:#555555;stroke-width:1;" x1="191.9961" x2="191.9961" y1="372.031" y2="395.782"/><polygon fill="#555555" points="187.9961,385.782,191.9961,395.782,195.9961,385.782,191.9961,389.782" style="stroke:#555555;stroke-width:1;"/><line style="stroke:#555555;stroke-width:1;" x1="191.9961" x2="191.9961" y1="146.52" y2="166.52"/><polygon fill="#555555" points="187.9961,156.52,191.9961,166.52,195.9961,156.52,191.9961,160.52" style="stroke:#555555;stroke-width:1;"/><line style="stroke:#555555;stroke-width:1;" x1="191.9961" x2="191.9961" y1="447.9265" y2="481.6775"/><polygon fill="#555555" points="187.9961,471.6775,191.9961,481.6775,195.9961,471.6775,191.9961,475.6775" style="stroke:#555555;stroke-width:1;"/><line style="stroke:#555555;stroke-width:1;" x1="191.9961" x2="191.9961" y1="533.822" y2="553.822"/><polygon fill="#555555" points="187.9961,543.822,191.9961,553.822,195.9961,543.822,191.9961,547.822" style="stroke:#555555;stroke-width:1;"/><line style="stroke:#555555;stroke-width:1;" x1="191.9961" x2="191.9961" y1="711.4053" y2="738.8691"/><polygon fill="#555555" points="187.9961,728.8691,191.9961,738.8691,195.9961,728.8691,191.9961,732.8691" style="stroke:#555555;stroke-width:1;"/><line style="stroke:#555555;stroke-width:1;" x1="191.9961" x2="191.9961" y1="649.9666" y2="675.333"/><polygon fill="#555555" points="187.9961,665.333,191.9961,675.333,195.9961,665.333,191.9961,669.333" style="stroke:#555555;stroke-width:1;"/><line style="stroke:#555555;stroke-width:1;" x1="243.1111" x2="276.9971" y1="637.9666" y2="637.9666"/><polygon fill="#555555" points="272.9971,708.8691,276.9971,718.8691,280.9971,708.8691,276.9971,712.8691" style="stroke:#555555;stroke-width:1;"/><line style="stroke:#555555;stroke-width:1;" x1="276.9971" x2="276.9971" y1="637.9666" y2="782.8691"/><line style="stroke:#555555;stroke-width:1;" x1="276.9971" x2="191.9961" y1="782.8691" y2="782.8691"/><line style="stroke:#555555;stroke-width:1;" x1="191.9961" x2="191.9961" y1="782.8691" y2="802.8691"/><polygon fill="#555555" points="187.9961,792.8691,191.9961,802.8691,195.9961,792.8691,191.9961,796.8691" style="stroke:#555555;stroke-width:1;"/><line style="stroke:#555555;stroke-width:1;" x1="191.9961" x2="191.9961" y1="605.9666" y2="625.9666"/><polygon fill="#555555" points="187.9961,615.9666,191.9961,625.9666,195.9961,615.9666,191.9961,619.9666" style="stroke:#555555;stroke-width:1;"/><line style="stroke:#555555;stroke-width:1;" x1="140.8811" x2="110.9971" y1="814.8691" y2="814.8691"/><line style="stroke:#555555;stroke-width:1;" x1="110.9971" x2="110.9971" y1="814.8691" y2="836.8691"/><polygon fill="#555555" points="106.9971,826.8691,110.9971,836.8691,114.9971,826.8691,110.9971,830.8691" style="stroke:#555555;stroke-width:1;"/><line style="stroke:#555555;stroke-width:1;" x1="243.1111" x2="272.9951" y1="814.8691" y2="814.8691"/><line style="stroke:#555555;stroke-width:1;" x1="272.9951" x2="272.9951" y1="814.8691" y2="836.8691"/><polygon fill="#555555" points="268.9951,826.8691,272.9951,836.8691,276.9951,826.8691,272.9951,830.8691" style="stroke:#555555;stroke-width:1;"/><line style="stroke:#555555;stroke-width:1;" x1="110.9971" x2="110.9971" y1="889.0137" y2="907.0137"/><line style="stroke:#555555;stroke-width:1;" x1="110.9971" x2="179.9961" y1="907.0137" y2="907.0137"/><polygon fill="#555555" points="169.9961,903.0137,179.9961,907.0137,169.9961,911.0137,173.9961,907.0137" style="stroke:#555555;stroke-width:1;"/><line style="stroke:#555555;stroke-width:1;" x1="272.9951" x2="272.9951" y1="889.0137" y2="907.0137"/><line style="stroke:#555555;stroke-width:1;" x1="272.9951" x2="203.9961" y1="907.0137" y2="907.0137"/><polygon fill="#555555" points="213.9961,903.0137,203.9961,907.0137,213.9961,911.0137,209.9961,907.0137" style="stroke:#555555;stroke-width:1;"/><line style="stroke:#555555;stroke-width:1;" x1="363.2915" x2="363.2915" y1="1244.9375" y2="1264.9375"/><polygon fill="#555555" points="359.2915,1254.9375,363.2915,1264.9375,367.2915,1254.9375,363.2915,1258.9375" style="stroke:#555555;stroke-width:1;"/><line style="stroke:#555555;stroke-width:1;" x1="363.2915" x2="363.2915" y1="1301.0098" y2="1321.0098"/><polygon fill="#555555" points="359.2915,1311.0098,363.2915,1321.0098,367.2915,1311.0098,363.2915,1315.0098" style="stroke:#555555;stroke-width:1;"/><line style="stroke:#555555;stroke-width:1;" x1="363.2915" x2="363.2915" y1="1357.082" y2="1377.082"/><polygon fill="#555555" points="359.2915,1367.082,363.2915,1377.082,367.2915,1367.082,363.2915,1371.082" style="stroke:#555555;stroke-width:1;"/><line style="stroke:#555555;stroke-width:1;" x1="257.853" x2="229.5884" y1="1186.8652" y2="1186.8652"/><line style="stroke:#555555;stroke-width:1;" x1="229.5884" x2="229.5884" y1="1186.8652" y2="1208.8652"/><polygon fill="#555555" points="225.5884,1198.8652,229.5884,1208.8652,233.5884,1198.8652,229.5884,1202.8652" style="stroke:#555555;stroke-width:1;"/><line style="stroke:#555555;stroke-width:1;" x1="335.0269" x2="363.2915" y1="1186.8652" y2="1186.8652"/><line style="stroke:#555555;stroke-width:1;" x1="363.2915" x2="363.2915" y1="1186.8652" y2="1208.8652"/><polygon fill="#555555" points="359.2915,1198.8652,363.2915,1208.8652,367.2915,1198.8652,363.2915,1202.8652" style="stroke:#555555;stroke-width:1;"/><line style="stroke:#555555;stroke-width:1;" x1="229.5884" x2="229.5884" y1="1244.9375" y2="1421.082"/><line style="stroke:#555555;stroke-width:1;" x1="229.5884" x2="203.9961" y1="1421.082" y2="1421.082"/><polygon fill="#555555" points="213.9961,1417.082,203.9961,1421.082,213.9961,1425.082,209.9961,1421.082" style="stroke:#555555;stroke-width:1;"/><line style="stroke:#555555;stroke-width:1;" x1="296.4399" x2="296.4399" y1="1154.8652" y2="1174.8652"/><polygon fill="#555555" points="292.4399,1164.8652,296.4399,1174.8652,300.4399,1164.8652,296.4399,1168.8652" style="stroke:#555555;stroke-width:1;"/><line style="stroke:#555555;stroke-width:1;" x1="135.3811" x2="87.5522" y1="1080.7207" y2="1080.7207"/><line style="stroke:#555555;stroke-width:1;" x1="87.5522" x2="87.5522" y1="1080.7207" y2="1102.7207"/><polygon fill="#555555" points="83.5522,1092.7207,87.5522,1102.7207,91.5522,1092.7207,87.5522,1096.7207" style="stroke:#555555;stroke-width:1;"/><line style="stroke:#555555;stroke-width:1;" x1="248.6111" x2="296.4399" y1="1080.7207" y2="1080.7207"/><line style="stroke:#555555;stroke-width:1;" x1="296.4399" x2="296.4399" y1="1080.7207" y2="1102.7207"/><polygon fill="#555555" points="292.4399,1092.7207,296.4399,1102.7207,300.4399,1092.7207,296.4399,1096.7207" style="stroke:#555555;stroke-width:1;"/><line style="stroke:#555555;stroke-width:1;" x1="87.5522" x2="87.5522" y1="1138.793" y2="1421.082"/><line style="stroke:#555555;stroke-width:1;" x1="87.5522" x2="179.9961" y1="1421.082" y2="1421.082"/><polygon fill="#555555" points="169.9961,1417.082,179.9961,1421.082,169.9961,1425.082,173.9961,1421.082" style="stroke:#555555;stroke-width:1;"/><line style="stroke:#555555;stroke-width:1;" x1="191.9961" x2="191.9961" y1="1035.6394" y2="1068.7207"/><polygon fill="#555555" points="187.9961,1058.7207,191.9961,1068.7207,195.9961,1058.7207,191.9961,1062.7207" style="stroke:#555555;stroke-width:1;"/><line style="stroke:#555555;stroke-width:1;" x1="191.9961" x2="191.9961" y1="963.0137" y2="999.5671"/><polygon fill="#555555" points="187.9961,989.5671,191.9961,999.5671,195.9961,989.5671,191.9961,993.5671" style="stroke:#555555;stroke-width:1;"/><line style="stroke:#555555;stroke-width:1;" x1="191.9961" x2="191.9961" y1="1433.082" y2="1443.082"/><line style="stroke:#555555;stroke-width:1;" x1="191.9961" x2="444.6255" y1="1443.082" y2="1443.082"/><polygon fill="#555555" points="440.6255,1208.9175,444.6255,1198.9175,448.6255,1208.9175,444.6255,1204.9175" style="stroke:#555555;stroke-width:1;"/><line style="stroke:#555555;stroke-width:1;" x1="444.6255" x2="444.6255" y1="951.0137" y2="1443.082"/><line style="stroke:#555555;stroke-width:1;" x1="444.6255" x2="240.0522" y1="951.0137" y2="951.0137"/><polygon fill="#555555" points="250.0522,947.0137,240.0522,951.0137,250.0522,955.0137,246.0522,951.0137" style="stroke:#555555;stroke-width:1;"/><line style="stroke:#555555;stroke-width:1;" x1="143.9399" x2="24" y1="951.0137" y2="951.0137"/><polygon fill="#555555" points="20,1194.9175,24,1204.9175,28,1194.9175,24,1198.9175" style="stroke:#555555;stroke-width:1;"/><line style="stroke:#555555;stroke-width:1;" x1="24" x2="24" y1="951.0137" y2="1455.082"/><line style="stroke:#555555;stroke-width:1;" x1="24" x2="191.9961" y1="1455.082" y2="1455.082"/><line style="stroke:#555555;stroke-width:1;" x1="191.9961" x2="191.9961" y1="1455.082" y2="1475.082"/><polygon fill="#555555" points="187.9961,1465.082,191.9961,1475.082,195.9961,1465.082,191.9961,1469.082" style="stroke:#555555;stroke-width:1;"/><line style="stroke:#555555;stroke-width:1;" x1="191.9961" x2="191.9961" y1="919.0137" y2="939.0137"/><polygon fill="#555555" points="187.9961,929.0137,191.9961,939.0137,195.9961,929.0137,191.9961,933.0137" style="stroke:#555555;stroke-width:1;"/><line style="stroke:#555555;stroke-width:1;" x1="191.9961" x2="191.9961" y1="1511.1543" y2="1531.1543"/><polygon fill="#555555" points="187.9961,1521.1543,191.9961,1531.1543,195.9961,1521.1543,191.9961,1525.1543" style="stroke:#555555;stroke-width:1;"/><!--SRC=[ZLHTJzjO47tthnXf7vf8-x0K8UsIXshP_WnUl2Gf5c1NJhfLLQsK4eC2M0AsIKbIEpWjeR3Agiu7A4Zfdzb7txd_OUT-9CMGX_L3OisTU-RCcJCkRLdsIzCrT-1tSsFhXUkyilE_ETkE2pyKvMEKvXdcHjdwmog_WRS6qBFswCBFnL-AfZfpt7p1rN7JLC5VNTTvhMChAoiozjmoTnmxlxQW-F96FfNo4F9FmoYLJRTi6AliwmI7JNRP1nR765z1CXW3TcFUzdE6xPGBu5elDikm2dXnoaOtCC- -nYyLrfi21XvlZDTjVO170NPEnHzWzHsl1YBdoUpmulG91bFM3O2DAidm6p6WJ7Ri0M-VOwq9lDN0S98p3Ai86Rm9c5y1dO7ZMZAQFij2URDWG-PDePILNQvI6dxQexGBxbzfWZbzf6CDdrqIrSZ3_QuwAfMTbqR1pbl5Xnpmx0HOFMRX57Zr1Ai7r6oJk4fkdTwwlIHqMjhQWHN1xj_zl-2fY3oboD9Fiz2o22sBaCXwgENbWHH8iQDpF8hMRLK6Gm-Ozvvtg5iA9iEAf40vjQRGaXqsMNGXikMyq1iaenlMYu1_w97YOgQABjiTGn9Ni7qDbCZE3_HSr-rCCeX98wmHXQZ1edusPwpgNcb4Ud227h5COayBHnVnyvG6DyDZVr-pRWZykCyRLzdPq58fUBQFeRzeQ9s-LfrQIoRnp2rTmSdZhURZCKdqS4hj0Ni_I2Q4tgxZy9z5w2c2k5VdTTdt9CPTig4NyMgOtFh0RYjurgV1Nv6rg8F2Tga06Tlv4NZT8ud4Ufnv6bI8sUa9JPCx7zlZUO_jc12Lh1ZL2BH6EK9Q7Em9K4N_zQQrJU3w4l_eiH51r08QIHQi4cGOwHtw6bNNfDLYHtSw9frvw-4kcVERNWibKyfTxBWbjf2IgJTsJlqUtYLnY25jQHAtCApSnvCsOYTDTbYd9LPBhhsbbbmM4DeJFzQRQD49JUY8qSbZ-INpL3TgwHNNcSRtSf-l4HNqWhcYse2TlleU2EU5OsdDuPY_4twTtPN4zAShhh33tfpE_GgA4Ob6Uc8Ko0rD4VmEgEYbUb6tLH51A6haqcVOyjXdVz5dPa7nz84q-BosTChtD_hLhfdPPT_7B-H7u__iZuJ-3m00]--></g></svg>