<svg xmlns="http://www.w3.org/2000/svg" xmlns:xlink="http://www.w3.org/1999/xlink" contentStyleType="text/css" data-diagram-type="SEQUENCE" height="1059px" preserveAspectRatio="none" style="width:1471px;height:1059px;background:#FFFFFF;" version="1.1" viewBox="0 0 1471 1059" width="1471px" zoomAndPan="magnify"><defs/><g><g><title>.. ..</title><rect fill="#FFFFFF" height="342.2607" style="stroke:#AAAAAA;stroke-width:1;" width="10" x="774.0947" y="619.7485"/></g><g><title>.. ...</title><rect fill="#FFFFFF" height="342.2607" style="stroke:#AAAAAA;stroke-width:1;" width="10" x="883.3184" y="619.7485"/></g><rect fill="none" height="465.3188" style="stroke:#000000;stroke-width:1.5;" width="1008.1055" x="446.3569" y="496.6904"/><rect fill="none" height="226.0259" style="stroke:#000000;stroke-width:1.5;" width="610.0889" x="834.3735" y="728.9834"/><g><title>.. .....</title><rect fill="#000000" fill-opacity="0.00000" height="909.2583" width="8" x="58.9448" y="69.751"/><line style="stroke:#AAAAAA;stroke-width:0.5;stroke-dasharray:5,5;" x1="62" x2="62" y1="69.751" y2="979.0093"/></g><g><title>Kafka</title><rect fill="#000000" fill-opacity="0.00000" height="909.2583" width="8" x="210.7803" y="69.751"/><line style="stroke:#AAAAAA;stroke-width:0.5;stroke-dasharray:5,5;" x1="213.8804" x2="213.8804" y1="69.751" y2="979.0093"/></g><g><title>.. ...</title><rect fill="#000000" fill-opacity="0.00000" height="909.2583" width="8" x="362.6157" y="69.751"/><line style="stroke:#AAAAAA;stroke-width:0.5;stroke-dasharray:5,5;" x1="365.8745" x2="365.8745" y1="69.751" y2="979.0093"/></g><g><title>Redis GEO</title><rect fill="#000000" fill-opacity="0.00000" height="909.2583" width="8" x="490.7568" y="69.751"/><line style="stroke:#AAAAAA;stroke-width:0.5;stroke-dasharray:5,5;" x1="494.3569" x2="494.3569" y1="69.751" y2="979.0093"/></g><g><title>.. .. API</title><rect fill="#000000" fill-opacity="0.00000" height="909.2583" width="8" x="633.6533" y="69.751"/><line style="stroke:#AAAAAA;stroke-width:0.5;stroke-dasharray:5,5;" x1="637.1567" x2="637.1567" y1="69.751" y2="979.0093"/></g><g><title>.. ..</title><rect fill="#000000" fill-opacity="0.00000" height="909.2583" width="8" x="775.0947" y="69.751"/><line style="stroke:#AAAAAA;stroke-width:0.5;stroke-dasharray:5,5;" x1="778.1499" x2="778.1499" y1="69.751" y2="979.0093"/></g><g><title>.. ...</title><rect fill="#000000" fill-opacity="0.00000" height="909.2583" width="8" x="884.3184" y="69.751"/><line style="stroke:#AAAAAA;stroke-width:0.5;stroke-dasharray:5,5;" x1="887.3735" x2="887.3735" y1="69.751" y2="979.0093"/></g><g><title>MySQL</title><rect fill="#000000" fill-opacity="0.00000" height="909.2583" width="8" x="1125.019" y="69.751"/><line style="stroke:#AAAAAA;stroke-width:0.5;stroke-dasharray:5,5;" x1="1128.6812" x2="1128.6812" y1="69.751" y2="979.0093"/></g><g><title>.... ..</title><rect fill="#000000" fill-opacity="0.00000" height="909.2583" width="8" x="1212.3018" y="69.751"/><line style="stroke:#AAAAAA;stroke-width:0.5;stroke-dasharray:5,5;" x1="1215.3569" x2="1215.3569" y1="69.751" y2="979.0093"/></g><g class="participant participant-head" data-participant="sim"><rect fill="#F8F9FA" height="32.751" rx="2.5" ry="2.5" style="stroke:#AAAAAA;stroke-width:0.5;" width="115.8896" x="5" y="36"/><text fill="#000000" font-family="sans-serif" font-size="14" lengthAdjust="spacing" textLength="101.8896" x="12" y="58.2373">&#52264;&#47049; &#49884;&#48044;&#47112;&#51060;&#53552;</text></g><g class="participant participant-tail" data-participant="sim"><rect fill="#F8F9FA" height="32.751" rx="2.5" ry="2.5" style="stroke:#AAAAAA;stroke-width:0.5;" width="115.8896" x="5" y="978.0093"/><text fill="#000000" font-family="sans-serif" font-size="14" lengthAdjust="spacing" textLength="101.8896" x="12" y="1000.2466">&#52264;&#47049; &#49884;&#48044;&#47112;&#51060;&#53552;</text></g><g class="participant participant-head" data-participant="kafka"><rect fill="#F8F9FA" height="32.751" rx="2.5" ry="2.5" style="stroke:#AAAAAA;stroke-width:0.5;" width="49.7998" x="189.8804" y="36"/><text fill="#000000" font-family="sans-serif" font-size="14" lengthAdjust="spacing" textLength="35.7998" x="196.8804" y="58.2373">Kafka</text></g><g class="participant participant-tail" data-participant="kafka"><rect fill="#F8F9FA" height="32.751" rx="2.5" ry="2.5" style="stroke:#AAAAAA;stroke-width:0.5;" width="49.7998" x="189.8804" y="978.0093"/><text fill="#000000" font-family="sans-serif" font-size="14" lengthAdjust="spacing" textLength="35.7998" x="196.8804" y="1000.2466">Kafka</text></g><g class="participant participant-head" data-participant="consumer"><rect fill="#F8F9FA" height="51.502" rx="2.5" ry="2.5" style="stroke:#AAAAAA;stroke-width:0.5;" width="159.4824" x="286.8745" y="17.249"/><text fill="#000000" font-family="sans-serif" font-size="14" lengthAdjust="spacing" textLength="73.8896" x="329.6709" y="39.4863">&#50948;&#52824; &#49688;&#49888;&#44592;</text><text fill="#000000" font-family="sans-serif" font-size="14" lengthAdjust="spacing" textLength="145.4824" x="293.8745" y="58.2373">(Kafka &#50948;&#52824; Consumer)</text></g><g class="participant participant-tail" data-participant="consumer"><rect fill="#F8F9FA" height="51.502" rx="2.5" ry="2.5" style="stroke:#AAAAAA;stroke-width:0.5;" width="159.4824" x="286.8745" y="978.0093"/><text fill="#000000" font-family="sans-serif" font-size="14" lengthAdjust="spacing" textLength="73.8896" x="329.6709" y="1000.2466">&#50948;&#52824; &#49688;&#49888;&#44592;</text><text fill="#000000" font-family="sans-serif" font-size="14" lengthAdjust="spacing" textLength="145.4824" x="293.8745" y="1018.9976">(Kafka &#50948;&#52824; Consumer)</text></g><g class="participant participant-head" data-participant="redis"><text fill="#000000" font-family="sans-serif" font-size="14" lengthAdjust="spacing" textLength="70.7998" x="456.3569" y="66.2373">Redis GEO</text><path d="M476.7568,15 C476.7568,5 494.7568,5 494.7568,5 C494.7568,5 512.7568,5 512.7568,15 L512.7568,41 C512.7568,51 494.7568,51 494.7568,51 C494.7568,51 476.7568,51 476.7568,41 L476.7568,15" fill="#E2E2F0" style="stroke:#181818;stroke-width:0.5;"/><path d="M476.7568,15 C476.7568,25 494.7568,25 494.7568,25 C494.7568,25 512.7568,25 512.7568,15" fill="none" style="stroke:#181818;stroke-width:0.5;"/></g><g class="participant participant-tail" data-participant="redis"><text fill="#000000" font-family="sans-serif" font-size="14" lengthAdjust="spacing" textLength="70.7998" x="456.3569" y="993.2466">Redis GEO</text><path d="M476.7568,1006.7603 C476.7568,996.7603 494.7568,996.7603 494.7568,996.7603 C494.7568,996.7603 512.7568,996.7603 512.7568,1006.7603 L512.7568,1032.7603 C512.7568,1042.7603 494.7568,1042.7603 494.7568,1042.7603 C494.7568,1042.7603 476.7568,1042.7603 476.7568,1032.7603 L476.7568,1006.7603" fill="#E2E2F0" style="stroke:#181818;stroke-width:0.5;"/><path d="M476.7568,1006.7603 C476.7568,1016.7603 494.7568,1016.7603 494.7568,1016.7603 C494.7568,1016.7603 512.7568,1016.7603 512.7568,1006.7603" fill="none" style="stroke:#181818;stroke-width:0.5;"/></g><g class="participant participant-head" data-participant="api"><rect fill="#F8F9FA" height="51.502" rx="2.5" ry="2.5" style="stroke:#AAAAAA;stroke-width:0.5;" width="188.9932" x="543.1567" y="17.249"/><text fill="#000000" font-family="sans-serif" font-size="14" lengthAdjust="spacing" textLength="86.3447" x="594.481" y="39.4863">&#48176;&#52264; &#50836;&#52397; API</text><text fill="#000000" font-family="sans-serif" font-size="14" lengthAdjust="spacing" textLength="174.9932" x="550.1567" y="58.2373">(&#45824;&#47049; &#48176;&#52264; &#50836;&#52397; &#49884;&#48044;&#47112;&#51060;&#53552;)</text></g><g class="participant participant-tail" data-participant="api"><rect fill="#F8F9FA" height="51.502" rx="2.5" ry="2.5" style="stroke:#AAAAAA;stroke-width:0.5;" width="188.9932" x="543.1567" y="978.0093"/><text fill="#000000" font-family="sans-serif" font-size="14" lengthAdjust="spacing" textLength="86.3447" x="594.481" y="1000.2466">&#48176;&#52264; &#50836;&#52397; API</text><text fill="#000000" font-family="sans-serif" font-size="14" lengthAdjust="spacing" textLength="174.9932" x="550.1567" y="1018.9976">(&#45824;&#47049; &#48176;&#52264; &#50836;&#52397; &#49884;&#48044;&#47112;&#51060;&#53552;)</text></g><g class="participant participant-head" data-participant="worker"><rect fill="#F8F9FA" height="32.751" rx="2.5" ry="2.5" style="stroke:#AAAAAA;stroke-width:0.5;" width="73.8896" x="742.1499" y="36"/><text fill="#000000" font-family="sans-serif" font-size="14" lengthAdjust="spacing" textLength="59.8896" x="749.1499" y="58.2373">&#48176;&#52264; &#50892;&#52964;</text></g><g class="participant participant-tail" data-participant="worker"><rect fill="#F8F9FA" height="32.751" rx="2.5" ry="2.5" style="stroke:#AAAAAA;stroke-width:0.5;" width="73.8896" x="742.1499" y="978.0093"/><text fill="#000000" font-family="sans-serif" font-size="14" lengthAdjust="spacing" textLength="59.8896" x="749.1499" y="1000.2466">&#48176;&#52264; &#50892;&#52964;</text></g><g class="participant participant-head" data-participant="dispatch"><rect fill="#F8F9FA" height="32.751" rx="2.5" ry="2.5" style="stroke:#AAAAAA;stroke-width:0.5;" width="87.8896" x="844.3735" y="36"/><text fill="#000000" font-family="sans-serif" font-size="14" lengthAdjust="spacing" textLength="73.8896" x="851.3735" y="58.2373">&#48176;&#52264; &#52376;&#47532;&#44592;</text></g><g class="participant participant-tail" data-participant="dispatch"><rect fill="#F8F9FA" height="32.751" rx="2.5" ry="2.5" style="stroke:#AAAAAA;stroke-width:0.5;" width="87.8896" x="844.3735" y="978.0093"/><text fill="#000000" font-family="sans-serif" font-size="14" lengthAdjust="spacing" textLength="73.8896" x="851.3735" y="1000.2466">&#48176;&#52264; &#52376;&#47532;&#44592;</text></g><g class="participant participant-head" data-participant="db"><text fill="#000000" font-family="sans-serif" font-size="14" lengthAdjust="spacing" textLength="46.6758" x="1102.6812" y="66.2373">MySQL</text><path d="M1111.019,15 C1111.019,5 1129.019,5 1129.019,5 C1129.019,5 1147.019,5 1147.019,15 L1147.019,41 C1147.019,51 1129.019,51 1129.019,51 C1129.019,51 1111.019,51 1111.019,41 L1111.019,15" fill="#E2E2F0" style="stroke:#181818;stroke-width:0.5;"/><path d="M1111.019,15 C1111.019,25 1129.019,25 1129.019,25 C1129.019,25 1147.019,25 1147.019,15" fill="none" style="stroke:#181818;stroke-width:0.5;"/></g><g class="participant participant-tail" data-participant="db"><text fill="#000000" font-family="sans-serif" font-size="14" lengthAdjust="spacing" textLength="46.6758" x="1102.6812" y="993.2466">MySQL</text><path d="M1111.019,1006.7603 C1111.019,996.7603 1129.019,996.7603 1129.019,996.7603 C1129.019,996.7603 1147.019,996.7603 1147.019,1006.7603 L1147.019,1032.7603 C1147.019,1042.7603 1129.019,1042.7603 1129.019,1042.7603 C1129.019,1042.7603 1111.019,1042.7603 1111.019,1032.7603 L1111.019,1006.7603" fill="#E2E2F0" style="stroke:#181818;stroke-width:0.5;"/><path d="M1111.019,1006.7603 C1111.019,1016.7603 1129.019,1016.7603 1129.019,1016.7603 C1129.019,1016.7603 1147.019,1016.7603 1147.019,1006.7603" fill="none" style="stroke:#181818;stroke-width:0.5;"/></g><g class="participant participant-head" data-participant="front"><rect fill="#F8F9FA" height="32.751" rx="2.5" ry="2.5" style="stroke:#AAAAAA;stroke-width:0.5;" width="101.8896" x="1165.3569" y="36"/><text fill="#000000" font-family="sans-serif" font-size="14" lengthAdjust="spacing" textLength="87.8896" x="1172.3569" y="58.2373">&#47784;&#45768;&#53552;&#47553; &#54868;&#47732;</text></g><g class="participant participant-tail" data-participant="front"><rect fill="#F8F9FA" height="32.751" rx="2.5" ry="2.5" style="stroke:#AAAAAA;stroke-width:0.5;" width="101.8896" x="1165.3569" y="978.0093"/><text fill="#000000" font-family="sans-serif" font-size="14" lengthAdjust="spacing" textLength="87.8896" x="1172.3569" y="1000.2466">&#47784;&#45768;&#53552;&#47553; &#54868;&#47732;</text></g><g><title>.. ..</title><rect fill="#FFFFFF" height="342.2607" style="stroke:#AAAAAA;stroke-width:1;" width="10" x="774.0947" y="619.7485"/></g><g><title>.. ...</title><rect fill="#FFFFFF" height="342.2607" style="stroke:#AAAAAA;stroke-width:1;" width="10" x="883.3184" y="619.7485"/></g><rect fill="#EEEEEE" height="3" style="stroke:#EEEEEE;stroke-width:1;" width="1464.4624" x="0" y="101.4568"/><line style="stroke:#000000;stroke-width:1;" x1="0" x2="1464.4624" y1="101.4568" y2="101.4568"/><line style="stroke:#000000;stroke-width:1;" x1="0" x2="1464.4624" y1="104.4568" y2="104.4568"/><rect fill="#EEEEEE" height="25.4116" style="stroke:#000000;stroke-width:2;" width="175.8335" x="644.3145" y="89.751"/><text fill="#000000" font-family="sans-serif" font-size="13" font-weight="bold" lengthAdjust="spacing" textLength="158.2217" x="650.3145" y="107.8999">&#52264;&#47049; &#50948;&#52824; &#49688;&#51665; (0.5&#52488;&#47560;&#45796;)</text><g class="message" data-participant-1="sim" data-participant-2="kafka"><polygon fill="#555555" points="202.7803,156.28,212.7803,160.28,202.7803,164.28,206.7803,160.28" style="stroke:#555555;stroke-width:1;"/><line style="stroke:#555555;stroke-width:1;" x1="62.9448" x2="208.7803" y1="160.28" y2="160.28"/><text fill="#000000" font-family="sans-serif" font-size="13" lengthAdjust="spacing" textLength="127.8354" x="69.9448" y="155.0173">&#52264;&#47049; &#50948;&#52824; &#51060;&#48292;&#53944; &#48156;&#54665;</text></g><path d="M219,130.1626 L219,174.1626 L440,174.1626 L440,140.1626 L430,130.1626 L219,130.1626" fill="#FEFFDD" style="stroke:#181818;stroke-width:0.5;"/><path d="M430,130.1626 L430,140.1626 L440,140.1626 L430,130.1626" fill="#FEFFDD" style="stroke:#181818;stroke-width:0.5;"/><text fill="#000000" font-family="sans-serif" font-size="13" lengthAdjust="spacing" textLength="195.73" x="225" y="149.3115">DB &#51649;&#51217; &#51200;&#51109; &#49884; &#52964;&#45349;&#49496; &#54253;&#48156; &#50864;&#47140;</text><text fill="#000000" font-family="sans-serif" font-size="13" lengthAdjust="spacing" textLength="200.8906" x="225" y="166.7231">&#8594; Kafka &#48260;&#54140;&#47553; &#54980; Redis&#50640;&#47564; &#51200;&#51109;</text><g class="message" data-participant-1="kafka" data-participant-2="consumer"><polygon fill="#555555" points="354.6157,199.3975,364.6157,203.3975,354.6157,207.3975,358.6157,203.3975" style="stroke:#555555;stroke-width:1;"/><line style="stroke:#555555;stroke-width:1;" x1="214.7803" x2="360.6157" y1="203.3975" y2="203.3975"/><text fill="#000000" font-family="sans-serif" font-size="13" lengthAdjust="spacing" textLength="127.8354" x="221.7803" y="198.1348">&#52264;&#47049;&#48324; &#49692;&#49436; &#48372;&#51109; &#49548;&#48708;</text></g><g class="message" data-participant-1="consumer" data-participant-2="redis"><polygon fill="#555555" points="482.7568,230.8091,492.7568,234.8091,482.7568,238.8091,486.7568,234.8091" style="stroke:#555555;stroke-width:1;"/><line style="stroke:#555555;stroke-width:1;" x1="366.6157" x2="488.7568" y1="234.8091" y2="234.8091"/><text fill="#000000" font-family="sans-serif" font-size="13" lengthAdjust="spacing" textLength="55.6118" x="373.6157" y="229.5464">&#50948;&#52824; &#44081;&#49888;</text></g><rect fill="#EEEEEE" height="3" style="stroke:#EEEEEE;stroke-width:1;" width="1464.4624" x="0" y="264.5149"/><line style="stroke:#000000;stroke-width:1;" x1="0" x2="1464.4624" y1="264.5149" y2="264.5149"/><line style="stroke:#000000;stroke-width:1;" x1="0" x2="1464.4624" y1="267.5149" y2="267.5149"/><rect fill="#EEEEEE" height="25.4116" style="stroke:#000000;stroke-width:2;" width="74.8486" x="694.8069" y="252.8091"/><text fill="#000000" font-family="sans-serif" font-size="13" font-weight="bold" lengthAdjust="spacing" textLength="57.2368" x="700.8069" y="270.958">&#48176;&#52264; &#50836;&#52397;</text><g class="message" data-participant-1="front" data-participant-2="api"><polygon fill="#555555" points="648.6533,307.6323,638.6533,311.6323,648.6533,315.6323,644.6533,311.6323" style="stroke:#555555;stroke-width:1;"/><line style="stroke:#555555;stroke-width:1;" x1="642.6533" x2="1215.3018" y1="311.6323" y2="311.6323"/><text fill="#000000" font-family="sans-serif" font-size="13" lengthAdjust="spacing" textLength="117.7236" x="654.6533" y="306.3696">&#48176;&#52264; &#50836;&#52397; (&#49849;&#44061; n&#47749;)</text></g><g class="message" data-participant-1="api" data-participant-2="db"><polygon fill="#555555" points="1117.019,339.0439,1127.019,343.0439,1117.019,347.0439,1121.019,343.0439" style="stroke:#555555;stroke-width:1;"/><line style="stroke:#555555;stroke-width:1;" x1="637.6533" x2="1123.019" y1="343.0439" y2="343.0439"/><text fill="#000000" font-family="sans-serif" font-size="13" lengthAdjust="spacing" textLength="198.6182" x="644.6533" y="337.7813">&#48176;&#52264; &#44148; &#49373;&#49457; (&#49345;&#53468;: REQUESTED)</text></g><g class="message" data-participant-1="api" data-participant-2="front"><polygon fill="#555555" points="1204.3018,370.4556,1214.3018,374.4556,1204.3018,378.4556,1208.3018,374.4556" style="stroke:#555555;stroke-width:1;"/><line style="stroke:#555555;stroke-width:1;stroke-dasharray:2,2;" x1="637.6533" x2="1210.3018" y1="374.4556" y2="374.4556"/><text fill="#000000" font-family="sans-serif" font-size="13" lengthAdjust="spacing" textLength="101.8354" x="644.6533" y="369.1929">&#48176;&#52264; ID &#47785;&#47197; &#48152;&#54872;</text></g><g class="message" data-participant-1="front" data-participant-2="front"><line style="stroke:#555555;stroke-width:1;" x1="1216.3018" x2="1258.3018" y1="423.2788" y2="423.2788"/><line style="stroke:#555555;stroke-width:1;" x1="1258.3018" x2="1258.3018" y1="423.2788" y2="436.2788"/><line style="stroke:#555555;stroke-width:1;" x1="1217.3018" x2="1258.3018" y1="436.2788" y2="436.2788"/><polygon fill="#555555" points="1227.3018,432.2788,1217.3018,436.2788,1227.3018,440.2788,1223.3018,436.2788" style="stroke:#555555;stroke-width:1;"/><text fill="#000000" font-family="sans-serif" font-size="13" lengthAdjust="spacing" textLength="98.2236" x="1223.3018" y="400.6045">&#49892;&#49884;&#44036; &#49688;&#49888; &#50672;&#44208;</text><text fill="#000000" font-family="sans-serif" font-size="13" lengthAdjust="spacing" textLength="215.96" x="1223.3018" y="418.0161">(SSE &#45800;&#51068; &#49828;&#53944;&#47548;&#51004;&#47196; n&#44148; &#46041;&#49884; &#44396;&#46021;)</text></g><path d="M990,399.6614 L990,426.6614 L1210,426.6614 L1210,409.6614 L1200,399.6614 L990,399.6614" fill="#FEFFDD" style="stroke:#181818;stroke-width:0.5;"/><path d="M1200,399.6614 L1200,409.6614 L1210,409.6614 L1200,399.6614" fill="#FEFFDD" style="stroke:#181818;stroke-width:0.5;"/><text fill="#000000" font-family="sans-serif" font-size="13" lengthAdjust="spacing" textLength="199.3354" x="996" y="418.8103">&#48652;&#46972;&#50864;&#51200; &#46041;&#49884; &#50672;&#44208; &#51228;&#54620;(6&#44060;) &#54924;&#54588;</text><rect fill="#EEEEEE" height="3" style="stroke:#EEEEEE;stroke-width:1;" width="1464.4624" x="0" y="465.9846"/><line style="stroke:#000000;stroke-width:1;" x1="0" x2="1464.4624" y1="465.9846" y2="465.9846"/><line style="stroke:#000000;stroke-width:1;" x1="0" x2="1464.4624" y1="468.9846" y2="468.9846"/><rect fill="#EEEEEE" height="25.4116" style="stroke:#000000;stroke-width:2;" width="178.3979" x="643.0322" y="454.2788"/><text fill="#000000" font-family="sans-serif" font-size="13" font-weight="bold" lengthAdjust="spacing" textLength="160.7861" x="649.0322" y="472.4277">&#48176;&#52264; &#52376;&#47532; (1&#52488;&#47560;&#45796; &#51116;&#49884;&#46020;)</text><path d="M446.3569,496.6904 L518.7915,496.6904 L518.7915,506.1021 L508.7915,516.1021 L446.3569,516.1021 L446.3569,496.6904" fill="#EEEEEE" style="stroke:#000000;stroke-width:1.5;"/><rect fill="none" height="465.3188" style="stroke:#000000;stroke-width:1.5;" width="1008.1055" x="446.3569" y="496.6904"/><text fill="#000000" font-family="sans-serif" font-size="13" font-weight="bold" lengthAdjust="spacing" textLength="27.4346" x="461.3569" y="511.8394">loop</text><text fill="#000000" font-family="sans-serif" font-size="11" font-weight="bold" lengthAdjust="spacing" textLength="167.0195" x="533.7915" y="510.6626">[&#48120;&#50756;&#47308; &#48176;&#52264; &#44148;&#51060; &#45224;&#50500;&#51080;&#45716; &#46041;&#50504;]</text><g class="message" data-participant-1="worker" data-participant-2="db"><polygon fill="#555555" points="1117.019,535.5137,1127.019,539.5137,1117.019,543.5137,1121.019,539.5137" style="stroke:#555555;stroke-width:1;"/><line style="stroke:#555555;stroke-width:1;" x1="779.0947" x2="1123.019" y1="539.5137" y2="539.5137"/><text fill="#000000" font-family="sans-serif" font-size="13" lengthAdjust="spacing" textLength="186.3481" x="786.0947" y="534.251">REQUESTED &#49345;&#53468; &#48176;&#52264; &#44148; &#51312;&#54924;</text></g><g class="message" data-participant-1="worker" data-participant-2="db"><polygon fill="#555555" points="1117.019,584.3369,1127.019,588.3369,1117.019,592.3369,1121.019,588.3369" style="stroke:#555555;stroke-width:1;"/><line style="stroke:#555555;stroke-width:1;" x1="779.0947" x2="1123.019" y1="588.3369" y2="588.3369"/><text fill="#000000" font-family="sans-serif" font-size="13" lengthAdjust="spacing" textLength="132.2598" x="786.0947" y="565.6626">&#49345;&#53468; &#8594; PROCESSING</text><text fill="#000000" font-family="sans-serif" font-size="13" lengthAdjust="spacing" textLength="93.8818" x="786.0947" y="583.0742">(&#51473;&#48373; &#52376;&#47532; &#48169;&#51648;)</text></g><g class="message" data-participant-1="worker" data-participant-2="dispatch"><polygon fill="#555555" points="871.3184,615.7485,881.3184,619.7485,871.3184,623.7485,875.3184,619.7485" style="stroke:#555555;stroke-width:1;"/><line style="stroke:#555555;stroke-width:1;" x1="784.0947" x2="877.3184" y1="619.7485" y2="619.7485"/><text fill="#000000" font-family="sans-serif" font-size="13" lengthAdjust="spacing" textLength="85.2236" x="791.0947" y="614.4858">&#48176;&#52264; &#49884;&#46020; &#50948;&#51076;</text></g><g class="message" data-participant-1="dispatch" data-participant-2="redis"><polygon fill="#555555" points="505.7568,647.1602,495.7568,651.1602,505.7568,655.1602,501.7568,651.1602" style="stroke:#555555;stroke-width:1;"/><line style="stroke:#555555;stroke-width:1;" x1="499.7568" x2="882.3184" y1="651.1602" y2="651.1602"/><text fill="#000000" font-family="sans-serif" font-size="13" lengthAdjust="spacing" textLength="131.4473" x="511.7568" y="645.8975">&#48152;&#44221; &#45236; &#44032;&#50857; &#52264;&#47049; &#51312;&#54924;</text></g><g class="message" data-participant-1="redis" data-participant-2="dispatch"><polygon fill="#555555" points="871.3184,678.5718,881.3184,682.5718,871.3184,686.5718,875.3184,682.5718" style="stroke:#555555;stroke-width:1;"/><line style="stroke:#555555;stroke-width:1;stroke-dasharray:2,2;" x1="494.7568" x2="877.3184" y1="682.5718" y2="682.5718"/><text fill="#000000" font-family="sans-serif" font-size="13" lengthAdjust="spacing" textLength="127.8354" x="501.7568" y="677.3091">&#44144;&#47532;&#49692; &#52264;&#47049; &#47785;&#47197; &#48152;&#54872;</text></g><g class="message" data-participant-1="dispatch" data-participant-2="front"><polygon fill="#555555" points="1204.3018,709.9834,1214.3018,713.9834,1204.3018,717.9834,1208.3018,713.9834" style="stroke:#555555;stroke-width:1;"/><line style="stroke:#555555;stroke-width:1;stroke-dasharray:2,2;" x1="893.3184" x2="1210.3018" y1="713.9834" y2="713.9834"/><text fill="#000000" font-family="sans-serif" font-size="13" lengthAdjust="spacing" textLength="172.2627" x="900.3184" y="708.7207">&#53456;&#49353; &#51473; &#50508;&#47548; + &#51452;&#48320; &#52264;&#47049; &#47785;&#47197;</text></g><path d="M834.3735,728.9834 L894.5444,728.9834 L894.5444,738.395 L884.5444,748.395 L834.3735,748.395 L834.3735,728.9834" fill="#EEEEEE" style="stroke:#000000;stroke-width:1.5;"/><rect fill="none" height="226.0259" style="stroke:#000000;stroke-width:1.5;" width="610.0889" x="834.3735" y="728.9834"/><text fill="#000000" font-family="sans-serif" font-size="13" font-weight="bold" lengthAdjust="spacing" textLength="15.1709" x="849.3735" y="744.1323">alt</text><text fill="#000000" font-family="sans-serif" font-size="11" font-weight="bold" lengthAdjust="spacing" textLength="55.7573" x="909.5444" y="742.9556">[&#48176;&#52264; &#49457;&#44277;]</text><g class="message" data-participant-1="dispatch" data-participant-2="db"><polygon fill="#555555" points="1117.019,767.8066,1127.019,771.8066,1117.019,775.8066,1121.019,771.8066" style="stroke:#555555;stroke-width:1;"/><line style="stroke:#555555;stroke-width:1;" x1="893.3184" x2="1123.019" y1="771.8066" y2="771.8066"/><text fill="#000000" font-family="sans-serif" font-size="13" lengthAdjust="spacing" textLength="158.9771" x="900.3184" y="766.5439">&#52264;&#47049; &#49345;&#53468; &#8594; DISPATCHED</text></g><g class="message" data-participant-1="dispatch" data-participant-2="front"><polygon fill="#555555" points="1204.3018,810.9241,1214.3018,814.9241,1204.3018,818.9241,1208.3018,814.9241" style="stroke:#555555;stroke-width:1;"/><line style="stroke:#555555;stroke-width:1;stroke-dasharray:2,2;" x1="893.3184" x2="1210.3018" y1="814.9241" y2="814.9241"/><text fill="#000000" font-family="sans-serif" font-size="13" lengthAdjust="spacing" textLength="153.1055" x="900.3184" y="809.6614">&#50756;&#47308; &#50508;&#47548; (&#54869;&#51221; &#52264;&#47049; &#51221;&#48372;)</text></g><path d="M1221,784.8066 L1221,828.8066 L1429,828.8066 L1429,794.8066 L1419,784.8066 L1221,784.8066" fill="#FEFFDD" style="stroke:#181818;stroke-width:0.5;"/><path d="M1419,784.8066 L1419,794.8066 L1429,794.8066 L1419,784.8066" fill="#FEFFDD" style="stroke:#181818;stroke-width:0.5;"/><text fill="#000000" font-family="sans-serif" font-size="13" lengthAdjust="spacing" textLength="187.1606" x="1227" y="803.9556">REQUESTED &#8594; PROCESSING</text><text fill="#000000" font-family="sans-serif" font-size="13" lengthAdjust="spacing" textLength="99.7534" x="1227" y="821.3672">&#8594; DISPATCHED</text><line style="stroke:#000000;stroke-width:1;stroke-dasharray:2,2;" x1="834.3735" x2="1444.4624" y1="835.6299" y2="835.6299"/><text fill="#000000" font-family="sans-serif" font-size="11" font-weight="bold" lengthAdjust="spacing" textLength="87.6133" x="839.3735" y="847.6021">[&#52264;&#47049; &#50630;&#51020; / &#49440;&#51216;]</text><g class="message" data-participant-1="dispatch" data-participant-2="db"><polygon fill="#555555" points="1117.019,888.186,1127.019,892.186,1117.019,896.186,1121.019,892.186" style="stroke:#555555;stroke-width:1;"/><line style="stroke:#555555;stroke-width:1;" x1="893.3184" x2="1123.019" y1="892.186" y2="892.186"/><text fill="#000000" font-family="sans-serif" font-size="13" lengthAdjust="spacing" textLength="156.8188" x="900.3184" y="869.5117">&#49345;&#53468; &#8594; WORKER_FAILED</text><text fill="#000000" font-family="sans-serif" font-size="13" lengthAdjust="spacing" textLength="211.7007" x="900.3184" y="886.9233">&#8594; &#45796;&#51020; &#47336;&#54532;&#50640;&#49436; REQUESTED &#48373;&#44396;</text></g><g class="message" data-participant-1="dispatch" data-participant-2="front"><polygon fill="#555555" points="1204.3018,931.3035,1214.3018,935.3035,1204.3018,939.3035,1208.3018,935.3035" style="stroke:#555555;stroke-width:1;"/><line style="stroke:#555555;stroke-width:1;stroke-dasharray:2,2;" x1="893.3184" x2="1210.3018" y1="935.3035" y2="935.3035"/><text fill="#000000" font-family="sans-serif" font-size="13" lengthAdjust="spacing" textLength="85.2236" x="900.3184" y="930.0408">&#51116;&#49884;&#46020; &#51473; &#50508;&#47548;</text></g><path d="M1221,905.186 L1221,949.186 L1379,949.186 L1379,915.186 L1369,905.186 L1221,905.186" fill="#FEFFDD" style="stroke:#181818;stroke-width:0.5;"/><path d="M1369,905.186 L1369,915.186 L1379,915.186 L1369,905.186" fill="#FEFFDD" style="stroke:#181818;stroke-width:0.5;"/><text fill="#000000" font-family="sans-serif" font-size="13" lengthAdjust="spacing" textLength="114.8354" x="1227" y="924.335">&#48152;&#44221; &#54869;&#51109; &#54980; &#51116;&#49884;&#46020;</text><text fill="#000000" font-family="sans-serif" font-size="13" lengthAdjust="spacing" textLength="137.3125" x="1227" y="941.7466">&#52572;&#45824; &#52488;&#44284; &#49884; &#8594; FAILED</text><!--SRC=[XLNVRzfM57xtNt6KlO2chjr3fgrI9YN1wr2p9OLEUuaqEM1Q2s8pGrPDLIKot8W6fYGJB92QZ2Yqa2ZTp8z8YSR-cJtwNlyFE_VQ64pPnXFS-vrpllETxrnoQKNDIhgq3Jdv-nrPJSZmN03yBEkwzcnLosWwVB2ukCZFrfIKlAQeyegc9sNTkvGaYLzkI7fUIIXPISslI8dq4rtRKPCU9lLfwhFK-x3PD2-4d4zdwxqS_2C8sKa2MA1Mb_ps2cZP9BzVaLQ9DeUEOIs0b8ESiXt4FfHIQObVfTctcKIcGM_hG4jrMcxPDzQc6k9uy2vMDJMtiothOPuWuVqIab9Usf9oCYp4vAIIWmVYEWVex5Um0h4iP0lqf4hxxs1v8uebIAN0w0UlPffnAqfPPNwwrnNwPvj3dcbw6YdDHVNhvEqLjiM1I2qhvHDFfzX_zMFyqPfxkJMJuR9BoYNaGJgxu3Igv6B8SIbTK_E2iBG4unbC5EmSGUZUHujqM2AT4Yctmx2q9E0yuCxdhlPmVpQgEIJzjhD_WrgOpg-l15NBow0hJvxc4HjP0ThPfQqZeAq2FNt3909icnXlwCiwE0VlC0hbiqYhlQd-lVSBkBCZVSFvUSI9lpQ0JuWU7v9EnSiZk6IGrNYWFZ4oCB0LanecaC6Grzoha5j3y94OnQVCGjmcRAk7vk6Q12UAtNEvM0mE4YE2zo6wVsjRJL39vSkmm108J6vDS7Pl2BJOf4OFiSLTfsZUXvZuw1in_bYCU14OuXRnew8H89SNvAo91tMdKP-G60DfkOrIsfRX6H_eiMNtcVdZSH58kKkR8w3xR33axOYQ8t9cWihOa8C66u9zVKKEa3CVLqPEyUet5T8SuJHGv37EpOkocqxD37rYMsOOd9EAKnq5vE8sXT37ldE0dbwnVJWmk8SocfO5yiSDRHZal3Ab3le7o4zTMZFeQOdiLtdTMec_EEvU-9Bwke6hP43ZCmjPpOloiCnR6x7rLJ4UZtxz07MYxICok1up9zO5xHJ2imcyVPkQEs-9- -RKu6WfaLT-a514Rui3P_x2ibC_svG1SRvs_ozKO8WcBD2J2t-z9Wsvs3j1FdRFGjvez750q331UbF6SOg7j8ZfsxYIjGfw0pu4UZuYWq8maU0saidxdHizUt3DJsURSNNsU4_aZaJZ6ykFLxyK8tEYfhtiUiAZ4t8QDTgg-VbQDLpZi9yXyBnC734xtZdrvGo-b-EintkqMO6xs5MBjWx_ewj9Ez-knnwAiU- -M8wkYH6t0lgSfI7dNQTgu0F57fq99xGNRjd_z3xUagc9pE_LSmfJ1zyqzYpwiPiglJRn7mbm- -p1Y3-oZ9vBrMrUJRgUaF_5c_AiZrd4Fm00]--></g></svg>